<svg xmlns="http://www.w3.org/2000/svg" viewBox="0 0 924.41 177.9"><defs><style>.cls-1{fill:#2d8faa;}.cls-2{fill:#0f4a6b;}.cls-3{fill:#8bb4c6;}.cls-4{fill:#1f2244;}</style></defs><g id="Layer_2" data-name="Layer 2"><g id="Layer_1-2" data-name="Layer 1"><polygon class="cls-1" points="199.76 177.9 212.76 177.9 162.16 127.3 111.56 177.9 124.56 177.9 162.16 140.3 199.76 177.9"/><polygon class="cls-2" points="162.16 154.67 185.39 177.9 199.76 177.9 162.16 140.3 124.56 177.9 138.93 177.9 162.16 154.67"/><polygon class="cls-1" points="83.5 164.9 162.16 86.23 240.82 164.9 290.14 164.9 303.14 177.9 323.67 177.9 290.14 144.36 240.82 144.36 162.16 65.7 83.5 144.36 33.53 144.36 0 177.9 20.53 177.9 33.53 164.9 83.5 164.9"/><polygon class="cls-2" points="162.16 106.76 233.29 177.9 303.14 177.9 290.14 164.9 240.82 164.9 162.16 86.23 83.5 164.9 33.53 164.9 20.53 177.9 91.02 177.9 162.16 106.76"/><polygon class="cls-1" points="288.04 125.89 287.53 125.89 251.13 109.5 162.16 20.53 73.17 109.52 73.17 109.5 36.77 125.89 36.27 125.89 162.16 0 288.04 125.89"/><polygon class="cls-2" points="162.16 20.53 73.17 109.52 77.27 125.89 77.33 125.89 162.16 41.06 246.98 125.89 247.03 125.89 251.13 109.5 162.16 20.53"/><polygon class="cls-3" points="287.53 125.89 247.02 125.89 251.13 109.5 287.53 125.89"/><polygon class="cls-3" points="77.27 125.89 36.77 125.89 73.17 109.5 73.17 109.52 77.27 125.89"/><path class="cls-2" d="M376.61,99q-8.62,0-13.47-2.43a13.58,13.58,0,0,1-6.8-7.28,32.44,32.44,0,0,1-1.94-12V50.19q0-11.65,5.22-17.17t17-5.53h36.54a68.49,68.49,0,0,1,12.8.91c3,.61,4.43,1.24,4.43,1.88L428,40.36q-2.07-.36-12.2-.79t-29.44-.42h-6.19q-9.7,0-9.71,8.61v31a8.94,8.94,0,0,0,2.12,6.37c1.42,1.5,3.95,2.24,7.59,2.24h5q20.14,0,31.25-.42T430.14,86l5,8c0,.41-.67,1-2,1.82s-3.78,1.54-7.34,2.19a93,93,0,0,1-15.41,1Z"/><path class="cls-2" d="M460.85,99a22.23,22.23,0,0,1-9.29-1.58,10.29,10.29,0,0,1-4.73-4,13,13,0,0,1-1.7-5.09,43.85,43.85,0,0,1-.3-4.86V44.61h14.81V83.69a3.76,3.76,0,0,0,1.76,3.77,8,8,0,0,0,4.06,1.09h24c1.78,0,2.83-.16,3.15-.49s.49-1.37.49-3.15V44.61H508V99H498l-4.61-2.43q-4.86,1-11.47,1.7A138.35,138.35,0,0,1,467,99Z"/><path class="cls-2" d="M536.23,99a54.21,54.21,0,0,1-11.53-.85c-2.27-.57-3.4-1.14-3.4-1.7l3.64-9.11q3.52.38,12.93.79t23.24.43h6.07c2,0,3.3-.55,3.82-1.64a10.27,10.27,0,0,0,.79-4.43,9.47,9.47,0,0,0-.91-4.49c-.6-1.13-1.84-1.7-3.7-1.7H537.32q-8.49,0-12.26-3.22t-3.76-9.65V58.57a26.46,26.46,0,0,1,.36-4A12.33,12.33,0,0,1,523.48,50a10.79,10.79,0,0,1,4.74-3.83,22.16,22.16,0,0,1,9.1-1.51h33.5q7.29,0,10.32.85c2,.56,3,1.13,3,1.7L583,56.26c-2.35-.24-6.67-.5-13-.79s-14-.42-23.18-.42h-6.07c-2,0-3.3.54-3.82,1.64a8.63,8.63,0,0,0-.79,3.82,8.17,8.17,0,0,0,.79,3.82c.52,1,1.8,1.52,3.82,1.52h29.86q8.25,0,12.14,3.4a10.94,10.94,0,0,1,3.88,8.62V85a37.73,37.73,0,0,1-.3,4.61,9.55,9.55,0,0,1-6.49,8A25.33,25.33,0,0,1,570.58,99Z"/><path class="cls-2" d="M621.07,99q-9.23,0-12.62-3.89t-3.4-11.65V55.05H595.1V44.61h5.1a5.93,5.93,0,0,0,3.33-.73A4.69,4.69,0,0,0,605.05,41l2.43-13h12.38V44.61h25.25V55.05H619.86V83.57c0,2,.49,3.36,1.46,4a7.9,7.9,0,0,0,4.37,1H642.8L644,97.77c-1.69.25-4.29.51-7.76.79S629,99,624.84,99Z"/><path class="cls-2" d="M669.63,99q-8.14,0-12.08-3.28C654.92,93.53,653.6,90,653.6,85V60.14a40.14,40.14,0,0,1,.31-4.43,14,14,0,0,1,1.7-5.15,10.62,10.62,0,0,1,4.73-4.25c2.23-1.14,5.32-1.7,9.29-1.7h33.5c4,0,7.16.56,9.35,1.7a10.72,10.72,0,0,1,4.67,4.25,14.14,14.14,0,0,1,1.7,5.15,39.83,39.83,0,0,1,.3,4.43V83.45a43.85,43.85,0,0,1-.3,4.86,12.64,12.64,0,0,1-1.76,5.09,10.69,10.69,0,0,1-4.74,4c-2.18,1-5.26,1.58-9.22,1.58Zm4.61-10.44h24.28q5.94,0,5.94-4.86V59.9q0-4.84-5.94-4.85H674.24c-3.88,0-5.83,1.62-5.83,4.85V83.69C668.41,86.93,670.36,88.55,674.24,88.55Z"/><path class="cls-2" d="M732.5,99V44.61h10l3,1.45q3.53-.6,8.62-1t12.14-.42h6.07a25.24,25.24,0,0,1,6.8.91A10.09,10.09,0,0,1,784,48.13a32.68,32.68,0,0,1,8.74-2.55,87.91,87.91,0,0,1,14.57-1h6.06c4,0,7.17.56,9.35,1.7a10.75,10.75,0,0,1,4.68,4.25,14.12,14.12,0,0,1,1.69,5.15,37.82,37.82,0,0,1,.31,4.43V99H814.56V59.9q0-4.84-5.83-4.85h-17a5.2,5.2,0,0,0-2.67.48c-.49.33-.73,1-.73,2.19V99H773.53V59.9q0-4.84-5.82-4.85H751a6.6,6.6,0,0,0-3,.42c-.45.29-.67,1-.67,2.25V99Z"/><path class="cls-2" d="M837.26,99l4.61-7.29,27-28.4L837.26,27.61h19.42l23.43,26.83h1.33L905,27.61h19.42l-4.73,7.17L892.85,63.3,924.41,99H905L881.44,71.92h-1.33L856.68,99Z"/><path class="cls-1" d="M360.7,157c0,7.83,5,13.41,12,13.41a13.55,13.55,0,0,0,10.46-5l4.29,4.45a19,19,0,0,1-14.37,6.44c-11.26,0-18.66-8.48-18.66-19.25s7.35-19.36,18.45-19.36a18.61,18.61,0,0,1,14,6.11l-4.29,4.45a12.22,12.22,0,0,0-10.13-4.66C365.64,143.61,360.7,149.24,360.7,157Z"/><path class="cls-1" d="M393.36,157c0-10.77,7-19.3,18.12-19.3s18.13,8.53,18.13,19.3-7,19.31-18.13,19.31S393.36,167.79,393.36,157Zm30,0c0-7.82-5-13.4-11.85-13.4s-11.85,5.58-11.85,13.4,5,13.41,11.85,13.41S423.33,164.84,423.33,157Z"/><path class="cls-1" d="M436.85,175.78V137.44l23.7,23.92V138.25h6.16v38.33L443,152.67v23.11Z"/><path class="cls-1" d="M492.72,146.83a7.23,7.23,0,0,0-6.27-3.22c-2.69,0-4.83,1.61-4.83,4,0,3.38,3.27,4.24,7.61,6.17,5.31,2.35,9.55,5.25,9.55,11.2,0,7-4.94,11.32-12.12,11.32-7.78,0-11.85-5.1-13-8.9l5.2-3a8,8,0,0,0,7.78,6c3.11,0,5.79-1.72,5.79-5.26,0-3.16-3.16-4.72-7.13-6.38-5.95-2.46-10.19-5.25-10.19-10.83,0-6.27,4.88-10.24,11.32-10.24a12.51,12.51,0,0,1,10.61,5.2Z"/><path class="cls-1" d="M529.07,138.25h6.17v20.59c0,10.83-4,17.48-14.74,17.48s-14.75-6.6-14.75-17.43V138.25h6.17v23.16c0,5.74,3.21,9,8.58,9s8.57-3.33,8.57-9Z"/><path class="cls-1" d="M565.59,169.88v5.9H543.82V138.25H550v31.63Z"/><path class="cls-1" d="M577.92,175.78V144.14H567.74v-5.89h26.54v5.89H584.09v31.64Z"/><line class="cls-4" x1="609.39" y1="158.85" x2="915.7" y2="159.02"/><rect class="cls-1" x="609.39" y="157.43" width="306.31" height="3"/></g></g></svg>